# xmcd
#
# Track frame offsets: 
#        150
#        13969
#        32365
#        48391
#        66453
#        90505
#        105914
#        122908
#        134806
#        154689
#        169118
#        186011
#
# Disc length: 2702 seconds
#
# Revision: 0
# Processed by: cddbd v1.5.2PL0 Copyright (c) Steve Scherf et al.
# Submitted via: ExactAudioCopy v1.3
#
DISCID=9e0a8c0c
DTITLE=Smoke Fairies - Smoke Fairies
DYEAR=2014
DGENRE=Country
TTITLE0=We've Seen Birds
TTITLE1=Eclipse Them All
TTITLE2=Shadow Inversions
TTITLE3=Hope Is Religion
TTITLE4=Waiting For Something To Begin
TTITLE5=Your Own Silent Movie
TTITLE6=Misty Versions
TTITLE7=Drinks And Dancing
TTITLE8=Koto
TTITLE9=Want It Forever
TTITLE10=The Very Last Time
TTITLE11=Are You Crazy
EXTD=
EXTT0=
EXTT1=
EXTT2=
EXTT3=
EXTT4=
EXTT5=
EXTT6=
EXTT7=
EXTT8=
EXTT9=
EXTT10=
EXTT11=
PLAYORDER=
